<?xml version="1.0" encoding="UTF-8" standalone="no"?>
<!-- Created with Inkscape (http://www.inkscape.org/) -->

<svg
   xmlns:dc="http://purl.org/dc/elements/1.1/"
   xmlns:cc="http://creativecommons.org/ns#"
   xmlns:rdf="http://www.w3.org/1999/02/22-rdf-syntax-ns#"
   xmlns:svg="http://www.w3.org/2000/svg"
   xmlns="http://www.w3.org/2000/svg"
   xmlns:sodipodi="http://sodipodi.sourceforge.net/DTD/sodipodi-0.dtd"
   xmlns:inkscape="http://www.inkscape.org/namespaces/inkscape"
   width="840.00006"
   height="400"
   id="svg2"
   version="1.1"
   inkscape:version="0.48.4 r9939"
   sodipodi:docname="7sledfont.svg"
   inkscape:export-filename="/home/marcel/Dropbox/lab/ctf/7sledfont_half.png"
   inkscape:export-xdpi="45"
   inkscape:export-ydpi="45">
  <defs
     id="defs4" />
  <sodipodi:namedview
     id="base"
     pagecolor="#ffffff"
     bordercolor="#666666"
     borderopacity="1.0"
     inkscape:pageopacity="0.0"
     inkscape:pageshadow="2"
     inkscape:zoom="1.325"
     inkscape:cx="420.00003"
     inkscape:cy="200"
     inkscape:document-units="px"
     inkscape:current-layer="layer1"
     showgrid="false"
     inkscape:window-width="1366"
     inkscape:window-height="729"
     inkscape:window-x="0"
     inkscape:window-y="18"
     inkscape:window-maximized="0"
     fit-margin-top="0"
     fit-margin-left="0"
     fit-margin-right="0"
     fit-margin-bottom="0" />
  <metadata
     id="metadata7">
    <rdf:RDF>
      <cc:Work
         rdf:about="">
        <dc:format>image/svg+xml</dc:format>
        <dc:type
           rdf:resource="http://purl.org/dc/dcmitype/StillImage" />
        <dc:title></dc:title>
      </cc:Work>
    </rdf:RDF>
  </metadata>
  <g
     inkscape:label="Layer 1"
     inkscape:groupmode="layer"
     id="layer1"
     transform="translate(-15.203777,-591.07923)">
    <g
       id="g3047"
       transform="matrix(1.0319451,0,0,1.034601,-13.902608,-27.372151)">
      <path
         inkscape:connector-curvature="0"
         id="path3096"
         d="m 61.497542,615.88589 13.6132,15.45283 53.349058,0.36792 15.45283,-16.5566"
         style="fill:#ff0000;fill-opacity:1;stroke:none" />
      <path
         inkscape:connector-curvature="0"
         id="path3866"
         d="m 46.412632,769.31041 15.45283,-14.71698 54.452828,0 14.71698,14.34906"
         style="fill:#ff0000;stroke:none" />
      <path
         inkscape:connector-curvature="0"
         id="path3868"
         d="m 55.242822,621.03683 13.98113,14.34906 -2.20755,36.79245 -17.29245,14.71698"
         style="fill:#ff0000;stroke:none" />
      <path
         inkscape:connector-curvature="0"
         id="path3870"
         d="m 149.79942,620.6689 -16.92453,15.45283 -2.94339,37.16038 13.98113,14.34906"
         style="fill:#ff0000;stroke:none" />
      <path
         inkscape:connector-curvature="0"
         id="path3872"
         d="m 47.516402,702.34815 14.34906,13.98113 -2.9434,32.00944 -16.5566,14.71698"
         style="fill:#ff0000;stroke:none" />
      <path
         inkscape:connector-curvature="0"
         id="path3874"
         d="m 141.33716,701.6123 -16.18868,14.71698 -2.57547,33.84906 13.61321,13.24528"
         style="fill:#ff0000;stroke:none" />
      <rect
         ry="0"
         y="597.76801"
         x="28.205362"
         height="191.80179"
         width="133.15042"
         id="rect3878"
         style="fill:none;stroke:none" />
      <path
         inkscape:connector-curvature="0"
         id="path3870-0"
         d="m 285.9687,620.6689 -16.92453,15.45283 -2.94339,37.16038 13.98113,14.34906"
         style="fill:#ff0000;stroke:none" />
      <path
         inkscape:connector-curvature="0"
         id="path3874-7"
         d="m 277.50644,701.6123 -16.18868,14.71698 -2.57546,33.84906 13.6132,13.24528"
         style="fill:#ff0000;stroke:none" />
      <rect
         ry="0"
         y="597.76801"
         x="164.37465"
         height="191.80179"
         width="133.15042"
         id="rect3878-9"
         style="fill:none;stroke:none" />
      <path
         inkscape:connector-curvature="0"
         id="path3096-66"
         d="m 333.83611,615.88589 13.6132,15.45283 53.34906,0.36792 15.45283,-16.5566"
         style="fill:#ff0000;fill-opacity:1;stroke:none" />
      <path
         inkscape:connector-curvature="0"
         id="path3866-9"
         d="m 318.7512,769.31041 15.45283,-14.71698 54.45283,0 14.71698,14.34906"
         style="fill:#ff0000;stroke:none" />
      <path
         inkscape:connector-curvature="0"
         id="path3870-8"
         d="m 422.13799,620.6689 -16.92453,15.45283 -2.94339,37.16038 13.98113,14.34906"
         style="fill:#ff0000;stroke:none" />
      <path
         inkscape:connector-curvature="0"
         id="path3872-7"
         d="m 319.85497,702.34815 14.34906,13.98113 -2.9434,32.00944 -16.5566,14.71698"
         style="fill:#ff0000;stroke:none" />
      <path
         inkscape:connector-curvature="0"
         id="path3876-1"
         d="m 325.00592,694.98966 7.35849,-7.72642 72.48113,-1.10377 5.51887,7.72642 -8.09434,7.72641 -71.74528,0.73585"
         style="fill:#ff0000;stroke:none" />
      <rect
         ry="0"
         y="597.76801"
         x="300.54391"
         height="191.80179"
         width="133.15042"
         id="rect3878-95"
         style="fill:none;stroke:none" />
      <path
         inkscape:connector-curvature="0"
         id="path3096-1"
         d="m 470.00539,615.88589 13.6132,15.45283 53.34906,0.36792 15.45283,-16.5566"
         style="fill:#ff0000;fill-opacity:1;stroke:none" />
      <path
         inkscape:connector-curvature="0"
         id="path3866-3"
         d="m 454.92048,769.31041 15.45283,-14.71698 54.45283,0 14.71698,14.34906"
         style="fill:#ff0000;stroke:none" />
      <path
         inkscape:connector-curvature="0"
         id="path3870-3"
         d="m 558.30727,620.6689 -16.92453,15.45283 -2.94339,37.16038 13.98113,14.34906"
         style="fill:#ff0000;stroke:none" />
      <path
         inkscape:connector-curvature="0"
         id="path3874-89"
         d="m 549.84501,701.6123 -16.18868,14.71698 -2.57547,33.84906 13.61321,13.24528"
         style="fill:#ff0000;stroke:none" />
      <path
         inkscape:connector-curvature="0"
         id="path3876-6"
         d="m 461.1752,694.98966 7.35849,-7.72642 72.48113,-1.10377 5.51887,7.72642 -8.09434,7.72641 -71.74528,0.73585"
         style="fill:#ff0000;stroke:none" />
      <rect
         ry="0"
         y="597.76801"
         x="436.7132"
         height="191.80179"
         width="133.15042"
         id="rect3878-6"
         style="fill:none;stroke:none" />
      <path
         inkscape:connector-curvature="0"
         id="path3868-74"
         d="m 599.91995,621.03683 13.98113,14.34906 -2.20755,36.79245 -17.29245,14.71698"
         style="fill:#ff0000;stroke:none" />
      <path
         inkscape:connector-curvature="0"
         id="path3870-6"
         d="m 694.47655,620.6689 -16.92453,15.45283 -2.94339,37.16038 13.98113,14.34906"
         style="fill:#ff0000;stroke:none" />
      <path
         inkscape:connector-curvature="0"
         id="path3874-2"
         d="m 686.01429,701.6123 -16.18868,14.71698 -2.57547,33.84906 13.61321,13.24528"
         style="fill:#ff0000;stroke:none" />
      <path
         inkscape:connector-curvature="0"
         id="path3876-68"
         d="m 597.34448,694.98966 7.35849,-7.72642 72.48113,-1.10377 5.51887,7.72642 -8.09434,7.72641 -71.74528,0.73585"
         style="fill:#ff0000;stroke:none" />
      <rect
         ry="0"
         y="597.76801"
         x="572.88251"
         height="191.80179"
         width="133.15042"
         id="rect3878-8"
         style="fill:none;stroke:none" />
      <path
         style="fill:#ff0000;fill-opacity:1;stroke:none"
         d="m 61.497542,810.70654 13.6132,15.45283 53.349058,0.36792 15.45283,-16.5566"
         id="path4335"
         inkscape:connector-curvature="0" />
      <path
         style="fill:#ff0000;stroke:none"
         d="m 46.412632,964.13106 15.45283,-14.71698 54.452828,0 14.71698,14.34906"
         id="path4337"
         inkscape:connector-curvature="0" />
      <path
         style="fill:#ff0000;stroke:none"
         d="m 55.242822,815.85748 13.98113,14.34906 -2.20755,36.79245 -17.29245,14.71698"
         id="path4339"
         inkscape:connector-curvature="0" />
      <path
         style="fill:#ff0000;stroke:none"
         d="m 141.33716,896.43295 -16.18868,14.71698 -2.57547,33.84906 13.61321,13.24528"
         id="path4345"
         inkscape:connector-curvature="0" />
      <path
         style="fill:#ff0000;stroke:none"
         d="m 52.667352,889.81031 7.35849,-7.72642 72.481128,-1.10377 5.51887,7.72642 -8.09434,7.72641 -71.745278,0.73585"
         id="path4347"
         inkscape:connector-curvature="0" />
      <rect
         style="fill:none;stroke:none"
         id="rect4349"
         width="133.15042"
         height="191.80179"
         x="28.205362"
         y="792.58868"
         ry="0" />
      <path
         style="fill:#ff0000;fill-opacity:1;stroke:none"
         d="m 197.66683,810.70654 13.6132,15.45283 53.34906,0.36792 15.45283,-16.5566"
         id="path4353"
         inkscape:connector-curvature="0" />
      <path
         style="fill:#ff0000;stroke:none"
         d="m 182.58191,964.13106 15.45284,-14.71698 54.45283,0 14.71698,14.34906"
         id="path4355"
         inkscape:connector-curvature="0" />
      <path
         style="fill:#ff0000;stroke:none"
         d="m 191.4121,815.85748 13.98113,14.34906 -2.20755,36.79245 -17.29245,14.71698"
         id="path4357"
         inkscape:connector-curvature="0" />
      <path
         style="fill:#ff0000;stroke:none"
         d="m 183.68568,897.1688 14.34907,13.98113 -2.9434,32.00944 -16.5566,14.71698"
         id="path4361"
         inkscape:connector-curvature="0" />
      <path
         style="fill:#ff0000;stroke:none"
         d="m 277.50644,896.43295 -16.18868,14.71698 -2.57546,33.84906 13.6132,13.24528"
         id="path4363"
         inkscape:connector-curvature="0" />
      <path
         style="fill:#ff0000;stroke:none"
         d="m 188.83663,889.81031 7.3585,-7.72642 72.48112,-1.10377 5.51887,7.72642 -8.09434,7.72641 -71.74528,0.73585"
         id="path4365"
         inkscape:connector-curvature="0" />
      <rect
         style="fill:none;stroke:none"
         id="rect4367"
         width="133.15042"
         height="191.80179"
         x="164.37465"
         y="792.58868"
         ry="0" />
      <path
         style="fill:#ff0000;fill-opacity:1;stroke:none"
         d="m 333.83611,810.70654 13.6132,15.45283 53.34906,0.36792 15.45283,-16.5566"
         id="path4371"
         inkscape:connector-curvature="0" />
      <path
         style="fill:#ff0000;stroke:none"
         d="m 422.13799,815.48955 -16.92453,15.45283 -2.94339,37.16038 13.98113,14.34906"
         id="path4377"
         inkscape:connector-curvature="0" />
      <path
         style="fill:#ff0000;stroke:none"
         d="m 413.67573,896.43295 -16.18868,14.71698 -2.57547,33.84906 13.61321,13.24528"
         id="path4381"
         inkscape:connector-curvature="0" />
      <rect
         style="fill:none;stroke:none"
         id="rect4385"
         width="133.15042"
         height="191.80179"
         x="300.54391"
         y="792.58868"
         ry="0" />
      <path
         style="fill:#ff0000;fill-opacity:1;stroke:none"
         d="m 470.00539,810.70654 13.6132,15.45283 53.34906,0.36792 15.45283,-16.5566"
         id="path4389"
         inkscape:connector-curvature="0" />
      <path
         style="fill:#ff0000;stroke:none"
         d="m 454.92048,964.13106 15.45283,-14.71698 54.45283,0 14.71698,14.34906"
         id="path4391"
         inkscape:connector-curvature="0" />
      <path
         style="fill:#ff0000;stroke:none"
         d="m 463.75067,815.85748 13.98113,14.34906 -2.20755,36.79245 -17.29245,14.71698"
         id="path4393"
         inkscape:connector-curvature="0" />
      <path
         style="fill:#ff0000;stroke:none"
         d="m 558.30727,815.48955 -16.92453,15.45283 -2.94339,37.16038 13.98113,14.34906"
         id="path4395"
         inkscape:connector-curvature="0" />
      <path
         style="fill:#ff0000;stroke:none"
         d="m 456.02425,897.1688 14.34906,13.98113 -2.9434,32.00944 -16.5566,14.71698"
         id="path4397"
         inkscape:connector-curvature="0" />
      <path
         style="fill:#ff0000;stroke:none"
         d="m 549.84501,896.43295 -16.18868,14.71698 -2.57547,33.84906 13.61321,13.24528"
         id="path4399"
         inkscape:connector-curvature="0" />
      <path
         style="fill:#ff0000;stroke:none"
         d="m 461.1752,889.81031 7.35849,-7.72642 72.48113,-1.10377 5.51887,7.72642 -8.09434,7.72641 -71.74528,0.73585"
         id="path4401"
         inkscape:connector-curvature="0" />
      <rect
         style="fill:none;stroke:none"
         id="rect4403"
         width="133.15042"
         height="191.80179"
         x="436.7132"
         y="792.58868"
         ry="0" />
      <path
         style="fill:#ff0000;fill-opacity:1;stroke:none"
         d="m 606.17467,810.70654 13.6132,15.45283 53.34906,0.36792 15.45283,-16.5566"
         id="path4407"
         inkscape:connector-curvature="0" />
      <path
         style="fill:#ff0000;stroke:none"
         d="m 591.08976,964.13106 15.45283,-14.71698 54.45283,0 14.71698,14.34906"
         id="path4409"
         inkscape:connector-curvature="0" />
      <path
         style="fill:#ff0000;stroke:none"
         d="m 599.91995,815.85748 13.98113,14.34906 -2.20755,36.79245 -17.29245,14.71698"
         id="path4411"
         inkscape:connector-curvature="0" />
      <path
         style="fill:#ff0000;stroke:none"
         d="m 694.47655,815.48955 -16.92453,15.45283 -2.94339,37.16038 13.98113,14.34906"
         id="path4413"
         inkscape:connector-curvature="0" />
      <path
         style="fill:#ff0000;stroke:none"
         d="m 686.01429,896.43295 -16.18868,14.71698 -2.57547,33.84906 13.61321,13.24528"
         id="path4417"
         inkscape:connector-curvature="0" />
      <path
         style="fill:#ff0000;stroke:none"
         d="m 597.34448,889.81031 7.35849,-7.72642 72.48113,-1.10377 5.51887,7.72642 -8.09434,7.72641 -71.74528,0.73585"
         id="path4419"
         inkscape:connector-curvature="0" />
      <rect
         style="fill:none;stroke:none"
         id="rect4421"
         width="133.15042"
         height="191.80179"
         x="572.88251"
         y="792.58868"
         ry="0" />
      <g
         style="stroke:none"
         id="g3935-48-4"
         transform="translate(614.30621,109.71228)">
        <rect
           style="fill:none;stroke:none"
           id="rect3878-8-4"
           width="133.15042"
           height="191.80179"
           x="94.74556"
           y="682.8764"
           ry="0" />
      </g>
      <path
         sodipodi:type="arc"
         style="fill:#ff0000;stroke:none"
         id="path4551"
         sodipodi:cx="754.5"
         sodipodi:cy="65.133148"
         sodipodi:rx="10.5"
         sodipodi:ry="10.5"
         d="m 765,65.133148 c 0,5.79899 -4.70101,10.5 -10.5,10.5 -5.79899,0 -10.5,-4.70101 -10.5,-10.5 0,-5.79899 4.70101,-10.5 10.5,-10.5 5.79899,0 10.5,4.70101 10.5,10.5 z"
         transform="translate(26.7098,789.10643)" />
      <path
         sodipodi:type="arc"
         style="fill:#ff0000;stroke:none"
         id="path4551-3"
         sodipodi:cx="754.5"
         sodipodi:cy="65.133148"
         sodipodi:rx="10.5"
         sodipodi:ry="10.5"
         d="m 765,65.133148 c 0,5.79899 -4.70101,10.5 -10.5,10.5 -5.79899,0 -10.5,-4.70101 -10.5,-10.5 0,-5.79899 4.70101,-10.5 10.5,-10.5 5.79899,0 10.5,4.70101 10.5,10.5 z"
         transform="translate(19.2098,857.60643)" />
      <path
         style="fill:#ff0000;stroke:none"
         d="m 733.51376,694.98966 7.35849,-7.72642 72.48113,-1.10377 5.51887,7.72642 -8.09434,7.72641 -71.74528,0.73585"
         id="path4437"
         inkscape:connector-curvature="0" />
      <rect
         style="fill:none;stroke:none"
         id="rect4439"
         width="133.15042"
         height="191.80179"
         x="709.05176"
         y="597.76801"
         ry="0" />
    </g>
  </g>
</svg>
